<svg xmlns="http://www.w3.org/2000/svg" viewBox="0 0 737.67 144"><defs><style>.cls-1{fill:#3965e2;}</style></defs><g id="Layer_2" data-name="Layer 2"><g id="Layer_1-2" data-name="Layer 1"><path d="M190.71,118.84V105.5l46.11-63.64a44.3,44.3,0,0,1,7-8.22L243,31.88a19.32,19.32,0,0,1-4.65,1.22,58.88,58.88,0,0,1-6.54.27H193.67V16h73.62V30L222,93a63.56,63.56,0,0,1-7.15,8.36l1.08,1.75a19.24,19.24,0,0,1,4.52-1.28,42.57,42.57,0,0,1,6-.34h41v17.39Z" transform="translate(0 -2.4)"/><path d="M291.82,115.34a34.58,34.58,0,0,1-13.55-13.82,41.34,41.34,0,0,1-4.78-20A45.49,45.49,0,0,1,277.73,62a35.35,35.35,0,0,1,12.81-14.77q8.56-5.66,21-5.66a42.15,42.15,0,0,1,18.87,4.25,32.94,32.94,0,0,1,13.89,13.08q5.25,8.82,5.26,21.9v3.91H297.08a32.93,32.93,0,0,1-5.8-.4l-.54,2a2.94,2.94,0,0,1,1.69,1.08,6.92,6.92,0,0,1,1,2.29,25.34,25.34,0,0,0,1.75,3.91,20.54,20.54,0,0,0,7.22,8.16,18.67,18.67,0,0,0,10.31,2.9,17.91,17.91,0,0,0,10.65-3.17,17.35,17.35,0,0,0,6.34-8.16h18.6a39,39,0,0,1-12.81,19.48q-9.17,7.48-23.46,7.49A40.13,40.13,0,0,1,291.82,115.34Zm1.08-42.2a13.76,13.76,0,0,1,3.64-1.62,15,15,0,0,1,3.64-.4h23.46a16.47,16.47,0,0,1,3.84.4,15.16,15.16,0,0,1,3.84,1.62l1.08-1.89a5.1,5.1,0,0,1-1.35-1,3.38,3.38,0,0,1-.6-1,2.58,2.58,0,0,1-.2-.67,12,12,0,0,0-2.16-4.45,17,17,0,0,0-6.74-6A21.94,21.94,0,0,0,302.81,58a16.28,16.28,0,0,0-6.67,6.07,11.11,11.11,0,0,0-2.3,4.45,3.35,3.35,0,0,1-.26.74,4.94,4.94,0,0,1-.68,1.08,3.89,3.89,0,0,1-1.21.87Z" transform="translate(0 -2.4)"/><path d="M374.6,115.34a33,33,0,0,1-11.73-14A47.85,47.85,0,0,1,358.69,81a47.93,47.93,0,0,1,4.18-20.43,33.06,33.06,0,0,1,11.73-14,30.86,30.86,0,0,1,17.39-5,26.07,26.07,0,0,1,12.27,2.63q5,2.63,9.31,9l1.88-1.35A11.3,11.3,0,0,1,413.9,49a10.48,10.48,0,0,1-.47-3.37V16h18.2V118.84h-18.2v-2.42a9.57,9.57,0,0,1,2-6.34l-1.88-1.21q-4.32,6.33-9.31,8.9A26.71,26.71,0,0,1,392,120.33,30.78,30.78,0,0,1,374.6,115.34Zm35.66-17.26q5.46-6.6,5.46-17.12t-5.46-17.12a17.43,17.43,0,0,0-14.09-6.61,16.82,16.82,0,0,0-13.88,6.67Q377,70.57,377,81T382.29,98a16.8,16.8,0,0,0,13.88,6.68A17.43,17.43,0,0,0,410.26,98.08Z" transform="translate(0 -2.4)"/><path d="M468,118.84q-17.65,0-17.66-16.58V57.77H439.18V43.21h11.19V16h18.2V43.21h14.56V57.77H468.57v39a9.66,9.66,0,0,0,1.15,5.26q1.14,1.76,5,1.75H483v15.1Z" transform="translate(0 -2.4)"/><path d="M494.59,118.84V43.21h18.2v2.43a12.47,12.47,0,0,1-.4,3.5,7.19,7.19,0,0,1-1.62,2.7l1.89,1.35a26.18,26.18,0,0,1,9.3-8.9,26.29,26.29,0,0,1,12.4-2.7h2.16V59.12h-4.18q-8.62,0-13.48,4.58a18.69,18.69,0,0,0-4.58,7.89,42,42,0,0,0-1.49,12.2v35.05Z" transform="translate(0 -2.4)"/><path d="M547.17,32a9.52,9.52,0,0,1-3.24-7.55,9.64,9.64,0,0,1,3.24-7.42,12.08,12.08,0,0,1,15.84,0,9.56,9.56,0,0,1,3.3,7.42A9.56,9.56,0,0,1,563.08,32a11.47,11.47,0,0,1-8,2.9A11.64,11.64,0,0,1,547.17,32Zm17,86.82H546V43.21h18.2Z" transform="translate(0 -2.4)"/><path d="M606.89,117.77q-5-2.56-9.3-8.9l-1.89,1.21a9.65,9.65,0,0,1,2,6.34v2.42h-18.2V16h18.2V45.64a10.19,10.19,0,0,1-.48,3.37,11,11,0,0,1-1.55,2.83l1.89,1.35q4.32-6.34,9.3-9a26.13,26.13,0,0,1,12.27-2.63,30.86,30.86,0,0,1,17.39,5,32.92,32.92,0,0,1,11.73,14A47.78,47.78,0,0,1,652.46,81a47.7,47.7,0,0,1-4.18,20.42,32.89,32.89,0,0,1-11.73,14,30.78,30.78,0,0,1-17.39,5A26.77,26.77,0,0,1,606.89,117.77Zm22-19.76q5.25-6.66,5.26-17.05T628.87,63.9A16.84,16.84,0,0,0,615,57.23a17.45,17.45,0,0,0-14.09,6.61q-5.46,6.6-5.46,17.12t5.46,17.12A17.45,17.45,0,0,0,615,104.69,16.82,16.82,0,0,0,628.87,98Z" transform="translate(0 -2.4)"/><path d="M680,115.34a34.52,34.52,0,0,1-13.55-13.82,41.24,41.24,0,0,1-4.79-20A45.49,45.49,0,0,1,665.88,62a35.39,35.39,0,0,1,12.8-14.77q8.57-5.66,21-5.66a42.15,42.15,0,0,1,18.87,4.25,32.82,32.82,0,0,1,13.89,13.08q5.26,8.82,5.26,21.9v3.91H685.22a32.8,32.8,0,0,1-5.79-.4l-.54,2a2.88,2.88,0,0,1,1.68,1.08,6.73,6.73,0,0,1,1,2.29,25.12,25.12,0,0,0,1.76,3.91,20.52,20.52,0,0,0,7.21,8.16,18.7,18.7,0,0,0,10.31,2.9,17.87,17.87,0,0,0,10.65-3.17,17.35,17.35,0,0,0,6.34-8.16h18.6a39.07,39.07,0,0,1-12.8,19.48q-9.18,7.48-23.46,7.49A40.1,40.1,0,0,1,680,115.34ZM681,73.14a13.9,13.9,0,0,1,3.64-1.62,15.08,15.08,0,0,1,3.64-.4h23.46a16.62,16.62,0,0,1,3.85.4,15.46,15.46,0,0,1,3.84,1.62l1.08-1.89a5.1,5.1,0,0,1-1.35-1,3.41,3.41,0,0,1-.61-1,3.11,3.11,0,0,1-.2-.67,12,12,0,0,0-2.16-4.45,17,17,0,0,0-6.74-6A21.94,21.94,0,0,0,691,58a16.34,16.34,0,0,0-6.67,6.07A11.09,11.09,0,0,0,682,68.56a3.08,3.08,0,0,1-.27.74,4.59,4.59,0,0,1-.68,1.08,3.89,3.89,0,0,1-1.21.87Z" transform="translate(0 -2.4)"/><path class="cls-1" d="M103,146.4h0a8.74,8.74,0,0,1-7.17-3.74L72,108.46l-23.84,34.2A8.76,8.76,0,0,1,41,146.4h0a8.74,8.74,0,0,1-7.17-13.74l31-44.48a8.74,8.74,0,0,1,14.34,0l31,44.48A8.74,8.74,0,0,1,103,146.4Z" transform="translate(0 -2.4)"/><path class="cls-1" d="M103,2.4h0a8.74,8.74,0,0,0-7.17,3.74L72,40.33,48.16,6.14A8.76,8.76,0,0,0,41,2.4h0a8.74,8.74,0,0,0-7.17,13.74l31,44.48a8.74,8.74,0,0,0,14.34,0l31-44.48A8.74,8.74,0,0,0,103,2.4Z" transform="translate(0 -2.4)"/><path class="cls-1" d="M0,105.41H0a8.74,8.74,0,0,1,3.74-7.17L37.94,74.4,3.74,50.56A8.77,8.77,0,0,1,0,43.39H0a8.74,8.74,0,0,1,13.74-7.17l44.48,31a8.74,8.74,0,0,1,0,14.34l-44.48,31A8.74,8.74,0,0,1,0,105.41Z" transform="translate(0 -2.4)"/><path class="cls-1" d="M144,105.41h0a8.74,8.74,0,0,0-3.74-7.17L106.06,74.4l34.2-23.84A8.77,8.77,0,0,0,144,43.39h0a8.74,8.74,0,0,0-13.74-7.17l-44.48,31a8.74,8.74,0,0,0,0,14.34l44.48,31A8.74,8.74,0,0,0,144,105.41Z" transform="translate(0 -2.4)"/></g></g></svg>